<?xml version="1.0" encoding="UTF-8" standalone="no"?>
<!-- Created with Inkscape (http://www.inkscape.org/) -->

<svg
   version="1.1"
   id="svg2"
   xml:space="preserve"
   width="680.32404"
   height="208.88303"
   viewBox="0 0 680.32404 208.88303"
   sodipodi:docname="sim_pcf.svg"
   inkscape:version="1.1.2 (1:1.1+202202050950+0a00cf5339)"
   inkscape:export-filename="/home/rnuske/packages/apcf/man/figures/sim_pcf.png"
   inkscape:export-xdpi="91.720001"
   inkscape:export-ydpi="91.720001"
   xmlns:inkscape="http://www.inkscape.org/namespaces/inkscape"
   xmlns:sodipodi="http://sodipodi.sourceforge.net/DTD/sodipodi-0.dtd"
   xmlns="http://www.w3.org/2000/svg"
   xmlns:svg="http://www.w3.org/2000/svg"
   xmlns:rdf="http://www.w3.org/1999/02/22-rdf-syntax-ns#"
   xmlns:cc="http://creativecommons.org/ns#"
   xmlns:dc="http://purl.org/dc/elements/1.1/"><metadata
     id="metadata8"><rdf:RDF><cc:Work
         rdf:about=""><dc:format>image/svg+xml</dc:format><dc:type
           rdf:resource="http://purl.org/dc/dcmitype/StillImage" /></cc:Work></rdf:RDF></metadata><defs
     id="defs6"><clipPath
       clipPathUnits="userSpaceOnUse"
       id="clipPath20"><path
         d="M 49.816,148.633 H 199.257 V 264.735 H 49.816 Z"
         id="path18"
         inkscape:connector-curvature="0" /></clipPath><clipPath
       clipPathUnits="userSpaceOnUse"
       id="clipPath30"><path
         d="M 0,0 H 539 V 426 H 0 Z"
         id="path28"
         inkscape:connector-curvature="0" /></clipPath><clipPath
       clipPathUnits="userSpaceOnUse"
       id="clipPath40"><path
         d="m 31.242,24.734 h 473 v 379 h -473 z"
         id="path38"
         inkscape:connector-curvature="0" /></clipPath><clipPath
       clipPathUnits="userSpaceOnUse"
       id="clipPath50"><path
         d="M 0,0 H 539 V 426 H 0 Z"
         id="path48"
         inkscape:connector-curvature="0" /></clipPath><clipPath
       clipPathUnits="userSpaceOnUse"
       id="clipPath148"><path
         d="M 213.422,148.633 H 362.863 V 264.735 H 213.422 Z"
         id="path146"
         inkscape:connector-curvature="0" /></clipPath><clipPath
       clipPathUnits="userSpaceOnUse"
       id="clipPath158"><path
         d="M 0,0 H 539 V 426 H 0 Z"
         id="path156"
         inkscape:connector-curvature="0" /></clipPath><clipPath
       clipPathUnits="userSpaceOnUse"
       id="clipPath168"><path
         d="m 43.242,24.734 h 473 v 379 h -473 z"
         id="path166"
         inkscape:connector-curvature="0" /></clipPath><clipPath
       clipPathUnits="userSpaceOnUse"
       id="clipPath178"><path
         d="M 0,0 H 539 V 426 H 0 Z"
         id="path176"
         inkscape:connector-curvature="0" /></clipPath><clipPath
       clipPathUnits="userSpaceOnUse"
       id="clipPath222"><path
         d="m 43.242,24.734 h 473 v 379 h -473 z"
         id="path220"
         inkscape:connector-curvature="0" /></clipPath><clipPath
       clipPathUnits="userSpaceOnUse"
       id="clipPath232"><path
         d="M 0,0 H 539 V 426 H 0 Z"
         id="path230"
         inkscape:connector-curvature="0" /></clipPath><clipPath
       clipPathUnits="userSpaceOnUse"
       id="clipPath294"><path
         d="M 377.02,148.633 H 528.622 V 264.735 H 377.02 Z"
         id="path292"
         inkscape:connector-curvature="0" /></clipPath><clipPath
       clipPathUnits="userSpaceOnUse"
       id="clipPath304"><path
         d="M 0,0 H 539 V 426 H 0 Z"
         id="path302"
         inkscape:connector-curvature="0" /></clipPath><clipPath
       clipPathUnits="userSpaceOnUse"
       id="clipPath314"><path
         d="m 55.242,24.734 h 473 v 379 h -473 z"
         id="path312"
         inkscape:connector-curvature="0" /></clipPath><clipPath
       clipPathUnits="userSpaceOnUse"
       id="clipPath324"><path
         d="M 0,0 H 539 V 426 H 0 Z"
         id="path322"
         inkscape:connector-curvature="0" /></clipPath><clipPath
       clipPathUnits="userSpaceOnUse"
       id="clipPath368"><path
         d="m 55.242,24.734 h 473 v 379 h -473 z"
         id="path366"
         inkscape:connector-curvature="0" /></clipPath><clipPath
       clipPathUnits="userSpaceOnUse"
       id="clipPath378"><path
         d="M 0,0 H 539 V 426 H 0 Z"
         id="path376"
         inkscape:connector-curvature="0" /></clipPath><clipPath
       clipPathUnits="userSpaceOnUse"
       id="clipPath440"><path
         d="M 377.02,20.711 H 528.622 V 136.813 H 377.02 Z"
         id="path438"
         inkscape:connector-curvature="0" /></clipPath><clipPath
       clipPathUnits="userSpaceOnUse"
       id="clipPath450"><path
         d="M 0,0 H 539 V 426 H 0 Z"
         id="path448"
         inkscape:connector-curvature="0" /></clipPath><clipPath
       clipPathUnits="userSpaceOnUse"
       id="clipPath460"><path
         d="m 55.242,0 h 473 v 155.391 h -473 z"
         id="path458"
         inkscape:connector-curvature="0" /></clipPath><clipPath
       clipPathUnits="userSpaceOnUse"
       id="clipPath470"><path
         d="M 0,0 H 539 V 426 H 0 Z"
         id="path468"
         inkscape:connector-curvature="0" /></clipPath><clipPath
       clipPathUnits="userSpaceOnUse"
       id="clipPath536"><path
         d="M 49.816,272.238 H 199.257 V 392.656 H 49.816 Z"
         id="path534"
         inkscape:connector-curvature="0" /></clipPath><clipPath
       clipPathUnits="userSpaceOnUse"
       id="clipPath546"><path
         d="M 0,0 H 539 V 426 H 0 Z"
         id="path544"
         inkscape:connector-curvature="0" /></clipPath><clipPath
       clipPathUnits="userSpaceOnUse"
       id="clipPath556"><path
         d="m 31.242,273.078 h 473 V 426 h -473 z"
         id="path554"
         inkscape:connector-curvature="0" /></clipPath><clipPath
       clipPathUnits="userSpaceOnUse"
       id="clipPath566"><path
         d="M 0,0 H 539 V 426 H 0 Z"
         id="path564"
         inkscape:connector-curvature="0" /></clipPath><clipPath
       clipPathUnits="userSpaceOnUse"
       id="clipPath636"><path
         d="M 49.816,20.711 H 199.257 V 136.813 H 49.816 Z"
         id="path634"
         inkscape:connector-curvature="0" /></clipPath><clipPath
       clipPathUnits="userSpaceOnUse"
       id="clipPath646"><path
         d="M 0,0 H 539 V 426 H 0 Z"
         id="path644"
         inkscape:connector-curvature="0" /></clipPath><clipPath
       clipPathUnits="userSpaceOnUse"
       id="clipPath656"><path
         d="m 31.242,0 h 473 v 155.391 h -473 z"
         id="path654"
         inkscape:connector-curvature="0" /></clipPath><clipPath
       clipPathUnits="userSpaceOnUse"
       id="clipPath666"><path
         d="M 0,0 H 539 V 426 H 0 Z"
         id="path664"
         inkscape:connector-curvature="0" /></clipPath><clipPath
       clipPathUnits="userSpaceOnUse"
       id="clipPath740"><path
         d="M 213.422,272.238 H 362.863 V 392.656 H 213.422 Z"
         id="path738"
         inkscape:connector-curvature="0" /></clipPath><clipPath
       clipPathUnits="userSpaceOnUse"
       id="clipPath750"><path
         d="M 0,0 H 539 V 426 H 0 Z"
         id="path748"
         inkscape:connector-curvature="0" /></clipPath><clipPath
       clipPathUnits="userSpaceOnUse"
       id="clipPath760"><path
         d="m 43.242,273.078 h 473 V 426 h -473 z"
         id="path758"
         inkscape:connector-curvature="0" /></clipPath><clipPath
       clipPathUnits="userSpaceOnUse"
       id="clipPath770"><path
         d="M 0,0 H 539 V 426 H 0 Z"
         id="path768"
         inkscape:connector-curvature="0" /></clipPath><clipPath
       clipPathUnits="userSpaceOnUse"
       id="clipPath814"><path
         d="M 213.422,20.711 H 362.863 V 136.813 H 213.422 Z"
         id="path812"
         inkscape:connector-curvature="0" /></clipPath><clipPath
       clipPathUnits="userSpaceOnUse"
       id="clipPath824"><path
         d="M 0,0 H 539 V 426 H 0 Z"
         id="path822"
         inkscape:connector-curvature="0" /></clipPath><clipPath
       clipPathUnits="userSpaceOnUse"
       id="clipPath834"><path
         d="m 43.242,0 h 473 v 155.391 h -473 z"
         id="path832"
         inkscape:connector-curvature="0" /></clipPath><clipPath
       clipPathUnits="userSpaceOnUse"
       id="clipPath844"><path
         d="M 0,0 H 539 V 426 H 0 Z"
         id="path842"
         inkscape:connector-curvature="0" /></clipPath><clipPath
       clipPathUnits="userSpaceOnUse"
       id="clipPath888"><path
         d="m 43.242,17.234 h 473 v 379 h -473 z"
         id="path886"
         inkscape:connector-curvature="0" /></clipPath><clipPath
       clipPathUnits="userSpaceOnUse"
       id="clipPath898"><path
         d="M 0,0 H 539 V 426 H 0 Z"
         id="path896"
         inkscape:connector-curvature="0" /></clipPath><clipPath
       clipPathUnits="userSpaceOnUse"
       id="clipPath960"><path
         d="M 377.02,272.238 H 528.622 V 392.656 H 377.02 Z"
         id="path958"
         inkscape:connector-curvature="0" /></clipPath><clipPath
       clipPathUnits="userSpaceOnUse"
       id="clipPath970"><path
         d="M 0,0 H 539 V 426 H 0 Z"
         id="path968"
         inkscape:connector-curvature="0" /></clipPath><clipPath
       clipPathUnits="userSpaceOnUse"
       id="clipPath980"><path
         d="m 55.242,273.078 h 473 V 426 h -473 z"
         id="path978"
         inkscape:connector-curvature="0" /></clipPath><clipPath
       clipPathUnits="userSpaceOnUse"
       id="clipPath990"><path
         d="M 0,0 H 539 V 426 H 0 Z"
         id="path988"
         inkscape:connector-curvature="0" /></clipPath><clipPath
       clipPathUnits="userSpaceOnUse"
       id="clipPath1034"><path
         d="m 55.242,17.234 h 473 v 379 h -473 z"
         id="path1032"
         inkscape:connector-curvature="0" /></clipPath><clipPath
       clipPathUnits="userSpaceOnUse"
       id="clipPath1044"><path
         d="M 0,0 H 539 V 426 H 0 Z"
         id="path1042"
         inkscape:connector-curvature="0" /></clipPath></defs><sodipodi:namedview
     pagecolor="#ffffff"
     bordercolor="#666666"
     borderopacity="1"
     objecttolerance="10"
     gridtolerance="10"
     guidetolerance="10"
     inkscape:pageopacity="1"
     inkscape:pageshadow="2"
     inkscape:window-width="1920"
     inkscape:window-height="1135"
     id="namedview4"
     showgrid="false"
     showguides="true"
     inkscape:guide-bbox="true"
     inkscape:zoom="1.122517"
     inkscape:cx="394.6488"
     inkscape:cy="67.704985"
     inkscape:window-x="0"
     inkscape:window-y="0"
     inkscape:window-maximized="1"
     inkscape:current-layer="g10"
     fit-margin-top="2"
     fit-margin-left="2"
     fit-margin-bottom="2"
     fit-margin-right="2"
     inkscape:pagecheckerboard="0" /><g
     id="g10"
     inkscape:groupmode="layer"
     inkscape:label="pcf_comparison_komplett"
     transform="matrix(1.3333333,0,0,1.3333333,-27.601807,-4.8047145)"><g
   id="g12" /><g
   id="g452" /><g
   transform="matrix(1,0,0,-1,0,-6)"
   id="g474"><path
     inkscape:connector-curvature="0"
     id="path476"
     style="fill:none;stroke:#bebebe;stroke-width:0.75;stroke-linecap:round;stroke-linejoin:round;stroke-miterlimit:10;stroke-dasharray:0, 2;stroke-dashoffset:0;stroke-opacity:1"
     d="M 377.02,-136.812 V -33.609" /></g><g
   transform="matrix(1,0,0,-1,0,-6)"
   id="g478"><path
     inkscape:connector-curvature="0"
     id="path480"
     style="fill:none;stroke:#bebebe;stroke-width:0.75;stroke-linecap:round;stroke-linejoin:round;stroke-miterlimit:10;stroke-dasharray:0, 2;stroke-dashoffset:0;stroke-opacity:1"
     d="M 404.094,-136.812 V -33.609" /></g><g
   transform="matrix(1,0,0,-1,0,-6)"
   id="g482"><path
     inkscape:connector-curvature="0"
     id="path484"
     style="fill:none;stroke:#bebebe;stroke-width:0.75;stroke-linecap:round;stroke-linejoin:round;stroke-miterlimit:10;stroke-dasharray:0, 2;stroke-dashoffset:0;stroke-opacity:1"
     d="M 431.172,-136.812 V -33.609" /></g><g
   transform="matrix(1,0,0,-1,0,-6)"
   id="g486"><path
     inkscape:connector-curvature="0"
     id="path488"
     style="fill:none;stroke:#bebebe;stroke-width:0.75;stroke-linecap:round;stroke-linejoin:round;stroke-miterlimit:10;stroke-dasharray:0, 2;stroke-dashoffset:0;stroke-opacity:1"
     d="M 458.242,-136.812 V -33.609" /></g><g
   transform="matrix(1,0,0,-1,0,-6)"
   id="g490"><path
     inkscape:connector-curvature="0"
     id="path492"
     style="fill:none;stroke:#bebebe;stroke-width:0.75;stroke-linecap:round;stroke-linejoin:round;stroke-miterlimit:10;stroke-dasharray:0, 2;stroke-dashoffset:0;stroke-opacity:1"
     d="M 485.309,-136.812 V -33.609" /></g><g
   transform="matrix(1,0,0,-1,0,-6)"
   id="g494"><path
     inkscape:connector-curvature="0"
     id="path496"
     style="fill:none;stroke:#bebebe;stroke-width:0.75;stroke-linecap:round;stroke-linejoin:round;stroke-miterlimit:10;stroke-dasharray:0, 2;stroke-dashoffset:0;stroke-opacity:1"
     d="M 512.383,-136.812 V -33.609" /></g><path
   inkscape:connector-curvature="0"
   id="path498"
   style="fill:#bebebe;fill-opacity:1;fill-rule:nonzero;stroke:none"
   d="m 379.727,96.05734 2.711,0.949 2.699,0.89 2.711,-0.207 2.711,0.059 2.711,-0.352 2.699,0.801 2.711,1.309 2.707,-0.438 2.707,0.258 2.707,0.363 2.711,0.039 2.707,-0.121 2.703,-0.769 2.711,0.129 2.711,-0.868 2.699,0.387 2.711,-0.008 2.707,0.438 2.711,0.66 2.699,-0.84 2.711,0.27 2.711,0.5 2.711,0.562 2.699,-0.511 2.711,0.14 2.707,0.41 2.695,-0.14 2.715,0.101 2.711,0.34 2.711,-0.23 2.695,0.019 2.715,0.43 2.703,-0.231 2.704,0.063 2.707,0.39 2.711,-0.113 2.71,-0.097 2.7,-0.012 2.711,0.121 2.711,-0.691 2.707,0.132 2.703,-0.363 2.707,-0.027 2.711,0.738 2.703,-0.449 2.711,0.84 2.707,0.371 2.711,-0.352 2.703,0.051 2.711,-0.082 2.707,-0.219 2.703,-0.051 2.707,0.332 2.711,-0.129 2.711,-0.332 v 6.981 l -2.711,0.379 -2.711,-0.621 -2.707,0.113 -2.703,-0.293 -2.707,-0.18 -2.711,0.563 -2.703,0.32 -2.711,-0.082 -2.707,-0.07 -2.711,-0.32 -2.703,0.082 -2.711,0.078 h -2.707 l -2.703,-0.321 -2.707,0.293 -2.711,-0.05 -2.711,-0.141 -2.7,0.309 -2.71,0.082 -2.711,0.41 -2.707,0.367 -2.704,0.16 -2.703,-0.5 -2.715,0.051 -2.695,-0.668 -2.711,0.207 -2.711,0.363 -2.715,-0.062 -2.695,-0.578 -2.707,0.289 -2.711,-0.27 -2.699,0.18 -2.711,0.711 -2.711,-0.032 -2.711,0.2 -2.699,-0.34 -2.711,-0.028 -2.707,-0.07 -2.711,-0.203 -2.699,0.512 -2.711,0.308 -2.711,0.352 -2.703,-0.039 -2.707,0.5 -2.711,-0.59 -2.707,-0.062 -2.707,0.23 -2.707,0.172 -2.711,-0.793 -2.699,0.121 -2.711,0.629 -2.711,0.32 -2.711,0.531 -2.699,1.141 -2.711,0.051 z" /><g
   transform="matrix(1,0,0,-1,0,-6.9626403)"
   id="g500"><path
     inkscape:connector-curvature="0"
     id="path502"
     style="fill:none;stroke:#ffffff;stroke-width:0.75;stroke-linecap:round;stroke-linejoin:round;stroke-miterlimit:10;stroke-dasharray:none;stroke-opacity:1"
     d="M 377.02,-111.012 H 528.633" /></g><path
   d="m 379.727,10.262 2.711,7.957 2.699,8.5 2.711,6.851 2.711,8.93 2.711,6.629 2.699,5.672 2.711,6.34 2.707,5.308 2.707,3.903 2.707,3.398 2.711,1.289 2.707,1.473 2.703,1.449 2.711,1.691 2.711,3.309 2.699,4.008 2.711,3.301 2.707,2.941 2.711,1.91 2.699,2.621 2.711,2.918 2.711,3.621 2.711,2.84 2.699,2.848 2.711,2.191 2.707,1.711 2.695,0.66 2.715,0.59 2.711,1.449 2.711,1.969 2.695,1.18 2.715,0.281 2.703,-0.918 2.704,-0.781 2.707,-0.91 2.711,-0.891 2.71,-0.43 2.7,0.02 2.711,0.031 2.711,-0.512 2.707,-1.14 2.703,-0.719 2.707,0.031 2.711,0.711 2.703,0.539 2.711,-0.32 2.707,-1.16 2.711,-1.199 2.703,-1.071 2.711,-0.902 2.707,-0.188 2.703,0.258 2.707,0.281 2.711,-0.359 2.711,-0.16"
   style="fill:none;stroke:#323232;stroke-width:1.6;stroke-linecap:round;stroke-linejoin:round;stroke-miterlimit:10;stroke-dasharray:none;stroke-opacity:1"
   id="path506"
   inkscape:connector-curvature="0" />
<text
   id="text516"
   style="font-variant:normal;font-size:11px;font-family:'Nimbus Sans';-inkscape-font-specification:NimbusSanL-Regu;writing-mode:lr-tb;fill:#000000;fill-opacity:1;fill-rule:nonzero;stroke:none"
   transform="rotate(-90)"
   x="-85.081841"
   y="28.963984"><tspan
     id="tspan514"
     sodipodi:role="line"
     y="28.963984"
     x="-85.081841 -78.965843 -75.302849 -71.60685">g(r)</tspan></text>
<text
   id="text520"
   style="font-variant:normal;font-size:8px;font-family:'Nimbus Sans';-inkscape-font-specification:NimbusSanL-Regu;writing-mode:lr-tb;fill:#00008c;fill-opacity:1;fill-rule:nonzero;stroke:none"
   x="183.46915"
   y="28.64193"><tspan
     id="tspan518"
     sodipodi:role="line"
     y="28.64193"
     x="183.46915"
     style="font-size:8px;fill:#0f0f0f;fill-opacity:1">(a)</tspan></text>
<text
   id="text524"
   style="font-variant:normal;font-size:8px;font-family:'Nimbus Sans';-inkscape-font-specification:NimbusSanL-Regu;writing-mode:lr-tb;fill:#006400;fill-opacity:1;fill-rule:nonzero;stroke:none"
   x="346.92709"
   y="28.38418"><tspan
     id="tspan522"
     sodipodi:role="line"
     y="28.38418"
     x="346.92709"
     style="font-size:8px;fill:#0f0f0f;fill-opacity:1">(b)</tspan></text>
<text
   id="text528"
   style="font-variant:normal;font-size:8px;font-family:'Nimbus Sans';-inkscape-font-specification:NimbusSanL-Regu;writing-mode:lr-tb;fill:#8c0000;fill-opacity:1;fill-rule:nonzero;stroke:none"
   x="512.55536"
   y="28.61318"><tspan
     id="tspan526"
     sodipodi:role="line"
     y="28.61318"
     x="512.55536"
     style="font-size:8px;fill:#0f0f0f;fill-opacity:1">(c)</tspan></text>
<g
   id="g648" /><g
   transform="matrix(1,0,0,-1,0,-6)"
   id="g670"><path
     inkscape:connector-curvature="0"
     id="path672"
     style="fill:none;stroke:#bebebe;stroke-width:0.75;stroke-linecap:round;stroke-linejoin:round;stroke-miterlimit:10;stroke-dasharray:0, 2;stroke-dashoffset:0;stroke-opacity:1"
     d="M 49.816,-136.812 V -33.609" /></g><g
   transform="matrix(1,0,0,-1,0,-6)"
   id="g674"><path
     inkscape:connector-curvature="0"
     id="path676"
     style="fill:none;stroke:#bebebe;stroke-width:0.75;stroke-linecap:round;stroke-linejoin:round;stroke-miterlimit:10;stroke-dasharray:0, 2;stroke-dashoffset:0;stroke-opacity:1"
     d="M 76.504,-136.812 V -33.609" /></g><g
   transform="matrix(1,0,0,-1,0,-6)"
   id="g678"><path
     inkscape:connector-curvature="0"
     id="path680"
     style="fill:none;stroke:#bebebe;stroke-width:0.75;stroke-linecap:round;stroke-linejoin:round;stroke-miterlimit:10;stroke-dasharray:0, 2;stroke-dashoffset:0;stroke-opacity:1"
     d="M 103.188,-136.812 V -33.609" /></g><g
   transform="matrix(1,0,0,-1,0,-6)"
   id="g682"><path
     inkscape:connector-curvature="0"
     id="path684"
     style="fill:none;stroke:#bebebe;stroke-width:0.75;stroke-linecap:round;stroke-linejoin:round;stroke-miterlimit:10;stroke-dasharray:0, 2;stroke-dashoffset:0;stroke-opacity:1"
     d="M 129.871,-136.812 V -33.609" /></g><g
   transform="matrix(1,0,0,-1,0,-6)"
   id="g686"><path
     inkscape:connector-curvature="0"
     id="path688"
     style="fill:none;stroke:#bebebe;stroke-width:0.75;stroke-linecap:round;stroke-linejoin:round;stroke-miterlimit:10;stroke-dasharray:0, 2;stroke-dashoffset:0;stroke-opacity:1"
     d="M 156.559,-136.812 V -33.609" /></g><g
   transform="matrix(1,0,0,-1,0,-6)"
   id="g690"><path
     inkscape:connector-curvature="0"
     id="path692"
     style="fill:none;stroke:#bebebe;stroke-width:0.75;stroke-linecap:round;stroke-linejoin:round;stroke-miterlimit:10;stroke-dasharray:0, 2;stroke-dashoffset:0;stroke-opacity:1"
     d="M 183.254,-136.812 V -33.609" /></g><path
   style="fill:#bebebe;fill-opacity:1;fill-rule:nonzero;stroke:none;stroke-width:1"
   d="m 52.476564,95.72314 v 15.71191 l 2.671875,-0.94336 2.667481,-0.97998 2.676269,-0.16699 2.671875,-0.69287 2.667481,0.51269 2.671875,-0.0395 2.668945,0.0601 2.660156,-0.73975 2.671876,0.13769 2.66748,-0.19921 2.671875,-0.64893 2.668943,-0.0498 2.66748,0.6079 2.667487,0.10254 2.664548,-0.32079 2.66748,-0.33252 2.668943,0.38379 2.671877,0.82763 2.66748,-0.26953 2.67481,-0.57129 2.66748,-0.64013 2.65722,0.19921 2.67481,-0.0586 2.66894,0.93017 2.67188,-0.009 2.66748,0.16845 2.67187,-0.64014 2.66895,-0.16698 2.66016,-0.041 2.67187,0.22706 2.66748,0.0513 2.67188,-0.10986 2.66748,0.36035 2.66894,-0.3794 2.66748,-0.0513 2.67187,-0.21093 2.66016,0.0307 2.66895,-0.14796 2.67187,0.0395 2.66748,0.19922 2.67041,-0.60937 2.66895,0.22998 2.67627,-0.17139 2.65576,-0.0703 2.66748,0.14063 2.67627,0.0703 2.67188,0.0894 2.66748,-0.59033 2.67187,0.24316 2.66894,0.15967 2.66017,0.38672 2.67187,0.0307 2.66748,-0.30029 2.67188,0.35155 2.66894,-0.1084 v -7.02099 l -2.66894,0.0908 -2.67188,0.18017 -2.66748,-0.583 -2.67187,0.19922 -2.66017,-0.38672 -2.66894,-0.4336 -2.67187,0.71192 -2.66748,0.44824 -2.67188,-0.0191 -2.67627,-0.29737 -2.66748,0.27833 -2.65576,-0.0278 -2.67627,-0.13329 -2.66895,0.0323 h -2.67041 l -2.66748,-0.16113 -2.67187,-0.21094 -2.66895,-0.41015 -2.66016,-0.0498 -2.67187,0.24169 -2.66748,-0.082 -2.66894,-0.0469 -2.66748,0.007 -2.67188,0.0395 -2.66748,0.0894 -2.67187,-0.44825 -2.66016,0.24903 -2.66895,-0.17871 -2.67187,0.21826 -2.66748,-0.10987 -2.67188,0.20362 -2.66894,-0.34424 -2.67481,-0.0191 -2.65722,0.40283 -2.66748,-0.0395 -2.67481,-0.49219 -2.66748,0.0893 -2.671877,0.49952 -2.668943,-0.26807 -2.66748,-0.25049 -2.664548,-0.17139 -2.667487,-0.0674 -2.66748,-0.0307 -2.668943,-0.0513 -2.671875,0.49951 -2.66748,-0.8789 -2.671876,-0.17872 -2.660156,-0.0117 -2.668945,0.14062 -2.671875,0.22998 -2.667481,-0.5581 -2.671875,0.008 -2.676269,-0.25049 -2.667481,-1.39014 z"
   id="path694"
   inkscape:connector-curvature="0" /><g
   transform="matrix(1,0,0,-1,1.3306309,-6.9566404)"
   id="g696"><path
     inkscape:connector-curvature="0"
     id="path698"
     style="fill:none;stroke:#ffffff;stroke-width:0.75;stroke-linecap:round;stroke-linejoin:round;stroke-miterlimit:10;stroke-dasharray:none;stroke-opacity:1"
     d="M 49.816,-111.012 H 199.262" /></g><path
   sodipodi:nodetypes="cccccccccccccccccccccccccccccccccccccccccccccccccccccccc"
   d="m 52.477,130.781 2.671,-0.312 2.668,-0.18 2.676,-0.598 2.672,-1.179 2.668,-2.723 2.672,-3.867 2.668,-4.32 2.66,-4.282 2.672,-5.308 2.668,-6.25 2.672,-6.211 2.668,-6.309 2.668,-2.812 2.668,1.281 2.664,3.5 2.668,5.828 2.668,5.273 2.672,3.84 2.668,0.438 2.675,-1.969 2.668,-2.121 2.657,1.191 2.675,3.528 2.668,4.613 2.672,5.137 2.668,4.113 2.672,1.789 2.668,-1.101 2.66,-3.719 2.672,-4.731 2.668,-6.23 2.672,-6.231 2.668,-5.437 2.668,-4.543 2.668,-3.449 2.672,-2.18 2.66,0.02 2.668,3.742 2.672,5.91 2.668,7.707 2.671,7.98 2.668,7.391 2.676,5.402 2.656,1.969 2.668,-1.32 2.676,-3.352 2.672,-5.058 2.668,-4.731 2.672,-4.758 2.668,-5.082 2.66,-4.16 2.672,-2.93 2.668,-1 2.672,-0.699 2.668,-0.609"
   style="fill:none;stroke:#323232;stroke-width:1.6;stroke-linecap:round;stroke-linejoin:round;stroke-miterlimit:10;stroke-dasharray:none;stroke-opacity:1"
   id="path702"
   inkscape:connector-curvature="0" /><g
   transform="matrix(1,0,0,-1,0,-6)"
   id="g710"><path
     inkscape:connector-curvature="0"
     id="path712"
     style="fill:none;stroke:#000000;stroke-width:0.75;stroke-linecap:round;stroke-linejoin:round;stroke-miterlimit:10;stroke-dasharray:none;stroke-opacity:1"
     d="M 49.816,-136.812 V -29.773" /></g><g
   transform="matrix(1,0,0,-1,0,-6)"
   id="g718"><path
     inkscape:connector-curvature="0"
     id="path720"
     style="fill:none;stroke:#000000;stroke-width:0.75;stroke-linecap:round;stroke-linejoin:round;stroke-miterlimit:10;stroke-dasharray:none;stroke-opacity:1"
     d="m 49.816,-110.055 h 1.805" /></g><g
   transform="matrix(1,0,0,-1,0,-6)"
   id="g722"><path
     inkscape:connector-curvature="0"
     id="path724"
     style="fill:none;stroke:#000000;stroke-width:0.75;stroke-linecap:round;stroke-linejoin:round;stroke-miterlimit:10;stroke-dasharray:none;stroke-opacity:1"
     d="m 49.816,-83.293 h 1.805" /></g><g
   transform="matrix(1,0,0,-1,0,-6)"
   id="g726"><path
     inkscape:connector-curvature="0"
     id="path728"
     style="fill:none;stroke:#000000;stroke-width:0.75;stroke-linecap:round;stroke-linejoin:round;stroke-miterlimit:10;stroke-dasharray:none;stroke-opacity:1"
     d="m 49.816,-56.535 h 1.805" /></g><g
   transform="matrix(1,0,0,-1,0,-6)"
   id="g730"><path
     inkscape:connector-curvature="0"
     id="path732"
     style="fill:none;stroke:#000000;stroke-width:0.75;stroke-linecap:round;stroke-linejoin:round;stroke-miterlimit:10;stroke-dasharray:none;stroke-opacity:1"
     d="m 49.816,-29.773 h 1.805" /></g><g
   id="g826" /><g
   transform="matrix(1,0,0,-1,0,-6)"
   id="g848"><path
     inkscape:connector-curvature="0"
     id="path850"
     style="fill:none;stroke:#bebebe;stroke-width:0.75;stroke-linecap:round;stroke-linejoin:round;stroke-miterlimit:10;stroke-dasharray:0, 2;stroke-dashoffset:0;stroke-opacity:1"
     d="M 213.422,-136.812 V -33.609" /></g><g
   transform="matrix(1,0,0,-1,0,-6)"
   id="g852"><path
     inkscape:connector-curvature="0"
     id="path854"
     style="fill:none;stroke:#bebebe;stroke-width:0.75;stroke-linecap:round;stroke-linejoin:round;stroke-miterlimit:10;stroke-dasharray:0, 2;stroke-dashoffset:0;stroke-opacity:1"
     d="M 240.113,-136.812 V -33.609" /></g><g
   transform="matrix(1,0,0,-1,0,-6)"
   id="g856"><path
     inkscape:connector-curvature="0"
     id="path858"
     style="fill:none;stroke:#bebebe;stroke-width:0.75;stroke-linecap:round;stroke-linejoin:round;stroke-miterlimit:10;stroke-dasharray:0, 2;stroke-dashoffset:0;stroke-opacity:1"
     d="M 266.793,-136.812 V -33.609" /></g><g
   transform="matrix(1,0,0,-1,0,-6)"
   id="g860"><path
     inkscape:connector-curvature="0"
     id="path862"
     style="fill:none;stroke:#bebebe;stroke-width:0.75;stroke-linecap:round;stroke-linejoin:round;stroke-miterlimit:10;stroke-dasharray:0, 2;stroke-dashoffset:0;stroke-opacity:1"
     d="M 293.477,-136.812 V -33.609" /></g><g
   transform="matrix(1,0,0,-1,0,-6)"
   id="g864"><path
     inkscape:connector-curvature="0"
     id="path866"
     style="fill:none;stroke:#bebebe;stroke-width:0.75;stroke-linecap:round;stroke-linejoin:round;stroke-miterlimit:10;stroke-dasharray:0, 2;stroke-dashoffset:0;stroke-opacity:1"
     d="M 320.164,-136.812 V -33.609" /></g><g
   transform="matrix(1,0,0,-1,0,-6)"
   id="g868"><path
     inkscape:connector-curvature="0"
     id="path870"
     style="fill:none;stroke:#bebebe;stroke-width:0.75;stroke-linecap:round;stroke-linejoin:round;stroke-miterlimit:10;stroke-dasharray:0, 2;stroke-dashoffset:0;stroke-opacity:1"
     d="M 346.848,-136.812 V -33.609" /></g><path
   style="fill:#bebebe;fill-opacity:1;fill-rule:nonzero;stroke:none;stroke-width:1"
   d="m 216.09376,96.94482 v 14.33935 l 2.66894,-0.39111 2.66748,-0.96826 2.66455,-0.55811 2.66748,-0.73095 2.66748,0.16113 2.66895,0.39697 2.67187,-0.49951 2.66748,-0.12891 2.67481,-0.10839 2.65723,-0.271 2.66748,0.46875 2.6748,-0.46875 2.66895,-0.27246 2.67187,0.42187 2.66748,-0.12891 2.67188,-0.0205 2.66016,0.15967 2.66894,0.56835 2.67187,-0.56835 2.66748,-0.20215 2.67188,0.0425 2.66748,-0.28125 2.66894,0.0791 2.66748,0.12011 2.66456,-0.41748 2.66748,-0.40283 2.66894,0.33252 2.67188,-0.25048 2.66748,0.13769 2.67041,-0.28858 2.66895,-0.0278 2.66015,0.14794 2.67188,0.10108 2.66748,0.41015 2.67627,-0.11279 2.67187,-0.0894 2.66748,-0.18017 2.67188,-0.21826 2.66016,-0.0908 2.66894,-0.082 2.67187,0.11427 2.66748,0.11718 2.67188,0.0894 2.66894,0.31348 2.66748,-0.29298 2.66309,-0.16845 2.66895,0.5581 2.66748,-0.36767 2.66894,-0.082 h 2.67187 l 2.66748,-0.0307 2.67481,0.20361 2.66748,0.19923 2.65723,-0.3003 2.67481,0.21093 v -6.85253 l -2.67481,-0.14795 -2.65723,-0.1333 -2.66748,-0.21826 -2.67481,0.2622 -2.66748,-0.23144 -2.67187,0.36035 -2.66894,0.0879 -2.66748,-0.16699 -2.66895,0.0395 -2.66309,-0.23145 -2.66748,0.0791 -2.66894,-0.50831 -2.67188,0.46143 -2.66748,0.20654 -2.67187,-0.0278 -2.66894,-0.17871 -2.66016,0.0469 -2.67188,-0.38818 -2.66748,0.11133 -2.67187,-0.17285 -2.67627,0.14062 -2.66748,0.26953 -2.67188,0.0395 -2.66015,-0.14795 -2.66895,-0.0395 -2.67041,0.41015 -2.66748,-0.54346 h -2.67188 l -2.66894,-0.39844 -2.66748,0.23877 -2.66456,0.18311 -2.66748,-0.81152 -2.66894,0.60058 -2.66748,-0.0191 -2.67188,0.26954 -2.66748,-0.13038 -2.67187,0.13038 -2.66894,-0.0513 -2.66016,-0.14063 -2.67188,-0.21826 -2.66748,0.0703 -2.67187,-0.59033 -2.66895,0.70752 -2.6748,-0.32813 -2.66748,0.38965 -2.65723,-0.24169 -2.67481,-0.60938 -2.66748,-0.15967 -2.67187,0.019 -2.66895,-0.22705 -2.66748,0.0206 -2.66748,0.007 -2.66455,-0.68701 -2.66748,-0.68408 z"
   id="path872"
   inkscape:connector-curvature="0" /><g
   transform="matrix(1,0,0,-1,0,-6.9656482)"
   id="g874"><path
     inkscape:connector-curvature="0"
     id="path876"
     style="fill:none;stroke:#ffffff;stroke-width:0.75;stroke-linecap:round;stroke-linejoin:round;stroke-miterlimit:10;stroke-dasharray:none;stroke-opacity:1"
     d="M 213.422,-111.012 H 362.863" /></g><path
   sodipodi:nodetypes="cccccccccccccccccccccccccccccccccccccccccccccccccccccccc"
   d="m 216.094,102.422 2.668,-0.223 2.668,-0.23 2.664,-0.387 2.668,0.207 2.668,0.133 2.668,-1.36 2.672,0.25 2.668,0.61 2.675,0.98 2.657,0.848 2.668,0.629 2.675,1.461 2.668,1.539 2.672,-0.578 2.668,-1.129 2.672,-1.11 2.66,-0.82 2.668,-0.551 2.672,-0.851 2.668,0.242 2.672,0.688 2.668,0.429 2.668,0.321 2.668,0.011 2.664,0.328 2.668,0.782 2.668,0.55 2.672,-0.031 h 2.668 l 2.671,0.012 2.668,-0.223 2.661,0.071 2.671,-0.219 2.668,0.078 2.676,-0.098 2.672,-0.34 2.668,-0.339 2.672,0.308 2.66,0.121 2.668,0.199 2.672,0.102 2.668,-0.281 2.672,-0.551 2.668,-0.371 2.668,0.133 2.664,1.039 2.668,0.988 2.668,0.473 2.668,-0.121 2.672,-0.282 2.668,-0.359 2.675,-0.289 2.668,0.031 2.657,0.668 2.675,0.512"
   style="fill:none;stroke:#323232;stroke-width:1.6;stroke-linecap:round;stroke-linejoin:round;stroke-miterlimit:10;stroke-dasharray:none;stroke-opacity:1"
   id="path880"
   inkscape:connector-curvature="0" /><g
   id="g906"
   transform="matrix(1,0,0,-1,0,-6)"><path
     d="m 213.422,-136.812 v 1.808"
     style="fill:none;stroke:#000000;stroke-width:0.75;stroke-linecap:round;stroke-linejoin:round;stroke-miterlimit:10;stroke-dasharray:none;stroke-opacity:1"
     id="path908"
     inkscape:connector-curvature="0" /></g><g
   id="g930"
   transform="matrix(1,0,0,-1,0,-6)"><path
     d="M 213.422,-136.812 V -29.773"
     style="fill:none;stroke:#000000;stroke-width:0.75;stroke-linecap:round;stroke-linejoin:round;stroke-miterlimit:10;stroke-dasharray:none;stroke-opacity:1"
     id="path932"
     inkscape:connector-curvature="0" /></g><g
   id="g938"
   transform="matrix(1,0,0,-1,0,-6)"><path
     d="m 213.422,-110.055 h 1.805"
     style="fill:none;stroke:#000000;stroke-width:0.75;stroke-linecap:round;stroke-linejoin:round;stroke-miterlimit:10;stroke-dasharray:none;stroke-opacity:1"
     id="path940"
     inkscape:connector-curvature="0" /></g><g
   id="g942"
   transform="matrix(1,0,0,-1,0,-6)"><path
     d="m 213.422,-83.293 h 1.805"
     style="fill:none;stroke:#000000;stroke-width:0.75;stroke-linecap:round;stroke-linejoin:round;stroke-miterlimit:10;stroke-dasharray:none;stroke-opacity:1"
     id="path944"
     inkscape:connector-curvature="0" /></g><g
   id="g946"
   transform="matrix(1,0,0,-1,0,-6)"><path
     d="m 213.422,-56.535 h 1.805"
     style="fill:none;stroke:#000000;stroke-width:0.75;stroke-linecap:round;stroke-linejoin:round;stroke-miterlimit:10;stroke-dasharray:none;stroke-opacity:1"
     id="path948"
     inkscape:connector-curvature="0" /></g><g
   id="g950"
   transform="matrix(1,0,0,-1,0,-6)"><path
     d="m 213.422,-29.773 h 1.805"
     style="fill:none;stroke:#000000;stroke-width:0.75;stroke-linecap:round;stroke-linejoin:round;stroke-miterlimit:10;stroke-dasharray:none;stroke-opacity:1"
     id="path952"
     inkscape:connector-curvature="0" /></g><g
   id="g1052"
   transform="matrix(1,0,0,-1,0,-6)"><path
     d="m 377.02,-136.812 v 1.808"
     style="fill:none;stroke:#000000;stroke-width:0.75;stroke-linecap:round;stroke-linejoin:round;stroke-miterlimit:10;stroke-dasharray:none;stroke-opacity:1"
     id="path1054"
     inkscape:connector-curvature="0" /></g><g
   id="g1076"
   transform="matrix(1,0,0,-1,0,-6)"><path
     d="M 377.02,-136.812 V -29.773"
     style="fill:none;stroke:#000000;stroke-width:0.75;stroke-linecap:round;stroke-linejoin:round;stroke-miterlimit:10;stroke-dasharray:none;stroke-opacity:1"
     id="path1078"
     inkscape:connector-curvature="0" /></g><g
   id="g1084"
   transform="matrix(1,0,0,-1,0,-6)"><path
     d="m 377.02,-110.055 h 1.812"
     style="fill:none;stroke:#000000;stroke-width:0.75;stroke-linecap:round;stroke-linejoin:round;stroke-miterlimit:10;stroke-dasharray:none;stroke-opacity:1"
     id="path1086"
     inkscape:connector-curvature="0" /></g><g
   id="g1088"
   transform="matrix(1,0,0,-1,0,-6)"><path
     d="m 377.02,-83.293 h 1.812"
     style="fill:none;stroke:#000000;stroke-width:0.75;stroke-linecap:round;stroke-linejoin:round;stroke-miterlimit:10;stroke-dasharray:none;stroke-opacity:1"
     id="path1090"
     inkscape:connector-curvature="0" /></g><g
   id="g1092"
   transform="matrix(1,0,0,-1,0,-6)"><path
     d="m 377.02,-56.535 h 1.812"
     style="fill:none;stroke:#000000;stroke-width:0.75;stroke-linecap:round;stroke-linejoin:round;stroke-miterlimit:10;stroke-dasharray:none;stroke-opacity:1"
     id="path1094"
     inkscape:connector-curvature="0" /></g><g
   id="g1096"
   transform="matrix(1,0,0,-1,0,-6)"><path
     d="m 377.02,-29.773 h 1.812"
     style="fill:none;stroke:#000000;stroke-width:0.75;stroke-linecap:round;stroke-linejoin:round;stroke-miterlimit:10;stroke-dasharray:none;stroke-opacity:1"
     id="path1098"
     inkscape:connector-curvature="0" /></g><text
   id="text1324"
   style="font-variant:normal;font-weight:normal;font-size:10px;font-family:'DejaVu Sans';-inkscape-font-specification:DejaVuSans;writing-mode:lr-tb;fill:#000000;fill-opacity:1;fill-rule:nonzero;stroke:none"
   transform="rotate(-90)"
   x="-107.32048"
   y="44.693405"><tspan
     id="tspan1322"
     sodipodi:role="line"
     x="-107.32048"
     y="44.693405">1</tspan></text>
<text
   id="text1328"
   style="font-variant:normal;font-weight:normal;font-size:9px;font-family:'DejaVu Sans';-inkscape-font-specification:DejaVuSans;writing-mode:lr-tb;fill:#000000;fill-opacity:1;fill-rule:nonzero;stroke:none"
   transform="rotate(-90)"
   x="-133.6257"
   y="44.324516"><tspan
     id="tspan1326"
     y="44.324516"
     x="-133.6257">0</tspan></text>
<text
   id="text1334"
   style="font-variant:normal;font-weight:normal;font-size:10px;font-family:'DejaVu Sans';-inkscape-font-specification:DejaVuSans;writing-mode:lr-tb;fill:#000000;fill-opacity:1;fill-rule:nonzero;stroke:none"
   transform="rotate(-90)"
   x="-80.378014"
   y="44.759331"><tspan
     id="tspan1330"
     y="44.759331"
     x="-80.378014">2</tspan><tspan
     id="tspan1332"
     sodipodi:role="line"
     y="44.68853"
     x="-53.819027 -27.319027">34</tspan></text>
<text
   xml:space="preserve"
   style="font-size:11px;line-height:100%;font-family:'Nimbus Sans';-inkscape-font-specification:'Nimbus Sans';letter-spacing:0px;word-spacing:0px;stroke-width:0.75"
   x="254.87762"
   y="157.64349"
   id="text34612"><tspan
     sodipodi:role="line"
     id="tspan34610"
     style="stroke-width:0.75"
     x="254.87762"
     y="157.64349">Distance r (m)</tspan></text></g><g
     inkscape:groupmode="layer"
     id="layer1"
     inkscape:label="unten"
     style="display:inline"
     transform="translate(-27.601807,-4.8047313)"><g
   transform="matrix(1.3333333,0,0,-1.3333333,0,-349.12531)"
   id="g1110"><path
     inkscape:connector-curvature="0"
     id="path1112"
     style="fill:none;stroke:#000000;stroke-width:0.75;stroke-linecap:round;stroke-linejoin:round;stroke-miterlimit:10;stroke-dasharray:none;stroke-opacity:1"
     d="M 49.816,-392.656 H 183.254" /></g><g
   transform="matrix(1.3333333,0,0,-1.3333333,0,-349.12531)"
   id="g1118"><path
     inkscape:connector-curvature="0"
     id="path1120"
     style="fill:none;stroke:#000000;stroke-width:0.75;stroke-linecap:round;stroke-linejoin:round;stroke-miterlimit:10;stroke-dasharray:none;stroke-opacity:1"
     d="m 76.504,-392.656 v 1.742" /></g><g
   transform="matrix(1.3333333,0,0,-1.3333333,0,-349.12531)"
   id="g1122"><path
     inkscape:connector-curvature="0"
     id="path1124"
     style="fill:none;stroke:#000000;stroke-width:0.75;stroke-linecap:round;stroke-linejoin:round;stroke-miterlimit:10;stroke-dasharray:none;stroke-opacity:1"
     d="m 103.188,-392.656 v 1.742" /></g><g
   transform="matrix(1.3333333,0,0,-1.3333333,0,-349.12531)"
   id="g1126"><path
     inkscape:connector-curvature="0"
     id="path1128"
     style="fill:none;stroke:#000000;stroke-width:0.75;stroke-linecap:round;stroke-linejoin:round;stroke-miterlimit:10;stroke-dasharray:none;stroke-opacity:1"
     d="m 129.871,-392.656 v 1.742" /></g><g
   transform="matrix(1.3333333,0,0,-1.3333333,0,-349.12531)"
   id="g1130"><path
     inkscape:connector-curvature="0"
     id="path1132"
     style="fill:none;stroke:#000000;stroke-width:0.75;stroke-linecap:round;stroke-linejoin:round;stroke-miterlimit:10;stroke-dasharray:none;stroke-opacity:1"
     d="m 156.559,-392.656 v 1.742" /></g><g
   transform="matrix(1.3333333,0,0,-1.3333333,0,-349.12531)"
   id="g1134"><path
     inkscape:connector-curvature="0"
     id="path1136"
     style="fill:none;stroke:#000000;stroke-width:0.75;stroke-linecap:round;stroke-linejoin:round;stroke-miterlimit:10;stroke-dasharray:none;stroke-opacity:1"
     d="m 183.254,-392.656 v 1.742" /></g><g
   transform="matrix(1.3333333,0,0,-1.3333333,0,-349.12531)"
   id="g1162"><path
     inkscape:connector-curvature="0"
     id="path1164"
     style="fill:none;stroke:#000000;stroke-width:0.75;stroke-linecap:round;stroke-linejoin:round;stroke-miterlimit:10;stroke-dasharray:none;stroke-opacity:1"
     d="M 213.422,-392.656 H 346.848" /></g><g
   transform="matrix(1.3333333,0,0,-1.3333333,0,-349.12531)"
   id="g1170"><path
     inkscape:connector-curvature="0"
     id="path1172"
     style="fill:none;stroke:#000000;stroke-width:0.75;stroke-linecap:round;stroke-linejoin:round;stroke-miterlimit:10;stroke-dasharray:none;stroke-opacity:1"
     d="m 240.113,-392.656 v 1.742" /></g><g
   transform="matrix(1.3333333,0,0,-1.3333333,0,-349.12531)"
   id="g1174"><path
     inkscape:connector-curvature="0"
     id="path1176"
     style="fill:none;stroke:#000000;stroke-width:0.75;stroke-linecap:round;stroke-linejoin:round;stroke-miterlimit:10;stroke-dasharray:none;stroke-opacity:1"
     d="m 266.793,-392.656 v 1.742" /></g><g
   transform="matrix(1.3333333,0,0,-1.3333333,0,-349.12531)"
   id="g1178"><path
     inkscape:connector-curvature="0"
     id="path1180"
     style="fill:none;stroke:#000000;stroke-width:0.75;stroke-linecap:round;stroke-linejoin:round;stroke-miterlimit:10;stroke-dasharray:none;stroke-opacity:1"
     d="m 293.477,-392.656 v 1.742" /></g><g
   transform="matrix(1.3333333,0,0,-1.3333333,0,-349.12531)"
   id="g1182"><path
     inkscape:connector-curvature="0"
     id="path1184"
     style="fill:none;stroke:#000000;stroke-width:0.75;stroke-linecap:round;stroke-linejoin:round;stroke-miterlimit:10;stroke-dasharray:none;stroke-opacity:1"
     d="m 320.164,-392.656 v 1.742" /></g><g
   transform="matrix(1.3333333,0,0,-1.3333333,0,-349.12531)"
   id="g1186"><path
     inkscape:connector-curvature="0"
     id="path1188"
     style="fill:none;stroke:#000000;stroke-width:0.75;stroke-linecap:round;stroke-linejoin:round;stroke-miterlimit:10;stroke-dasharray:none;stroke-opacity:1"
     d="m 346.848,-392.656 v 1.742" /></g><text
   id="text1200"
   style="font-variant:normal;font-weight:normal;font-size:12px;font-family:'DejaVu Sans';-inkscape-font-specification:DejaVuSans;writing-mode:lr-tb;fill:#000000;fill-opacity:1;fill-rule:nonzero;stroke:none;stroke-width:1.33333"
   x="280.90067"
   y="188.67664"><tspan
     id="tspan1190"
     y="188.67664"
     x="280.90067"
     style="stroke-width:1.33333">0</tspan><tspan
     id="tspan1192"
     y="188.59753"
     x="316.25067"
     style="stroke-width:1.33333">5</tspan><tspan
     id="tspan1194"
     sodipodi:role="line"
     y="188.67664"
     x="347.78229 355.41431"
     style="stroke-width:1.33333">10</tspan><tspan
     id="tspan1196"
     sodipodi:role="line"
     y="188.59753"
     x="383.29047 390.92249"
     style="stroke-width:1.33333">15</tspan><tspan
     id="tspan1198"
     sodipodi:role="line"
     y="188.67664"
     x="419.34674 426.97876 454.51874 462.15076"
     style="stroke-width:1.33333">2025</tspan></text>
<g
   transform="matrix(1.3333333,0,0,-1.3333333,0,-349.12531)"
   id="g1226"><path
     inkscape:connector-curvature="0"
     id="path1228"
     style="fill:none;stroke:#000000;stroke-width:0.75;stroke-linecap:round;stroke-linejoin:round;stroke-miterlimit:10;stroke-dasharray:none;stroke-opacity:1"
     d="M 377.02,-392.656 H 512.383" /></g><g
   transform="matrix(1.3333333,0,0,-1.3333333,0,-349.12531)"
   id="g1234"><path
     inkscape:connector-curvature="0"
     id="path1236"
     style="fill:none;stroke:#000000;stroke-width:0.75;stroke-linecap:round;stroke-linejoin:round;stroke-miterlimit:10;stroke-dasharray:none;stroke-opacity:1"
     d="m 404.094,-392.656 v 1.742" /></g><g
   transform="matrix(1.3333333,0,0,-1.3333333,0,-349.12531)"
   id="g1238"><path
     inkscape:connector-curvature="0"
     id="path1240"
     style="fill:none;stroke:#000000;stroke-width:0.75;stroke-linecap:round;stroke-linejoin:round;stroke-miterlimit:10;stroke-dasharray:none;stroke-opacity:1"
     d="m 431.172,-392.656 v 1.742" /></g><g
   transform="matrix(1.3333333,0,0,-1.3333333,0,-349.12531)"
   id="g1242"><path
     inkscape:connector-curvature="0"
     id="path1244"
     style="fill:none;stroke:#000000;stroke-width:0.75;stroke-linecap:round;stroke-linejoin:round;stroke-miterlimit:10;stroke-dasharray:none;stroke-opacity:1"
     d="m 458.242,-392.656 v 1.742" /></g><g
   transform="matrix(1.3333333,0,0,-1.3333333,0,-349.12531)"
   id="g1246"><path
     inkscape:connector-curvature="0"
     id="path1248"
     style="fill:none;stroke:#000000;stroke-width:0.75;stroke-linecap:round;stroke-linejoin:round;stroke-miterlimit:10;stroke-dasharray:none;stroke-opacity:1"
     d="m 485.309,-392.656 v 1.742" /></g><g
   transform="matrix(1.3333333,0,0,-1.3333333,0,-349.12531)"
   id="g1250"><path
     inkscape:connector-curvature="0"
     id="path1252"
     style="fill:none;stroke:#000000;stroke-width:0.75;stroke-linecap:round;stroke-linejoin:round;stroke-miterlimit:10;stroke-dasharray:none;stroke-opacity:1"
     d="m 512.383,-392.656 v 1.742" /></g><text
   id="text1264"
   style="font-variant:normal;font-weight:normal;font-size:12px;font-family:'DejaVu Sans';-inkscape-font-specification:DejaVuSans;writing-mode:lr-tb;fill:#000000;fill-opacity:1;fill-rule:nonzero;stroke:none;stroke-width:1.33333"
   x="500.29169"
   y="188.67664"><tspan
     id="tspan1254"
     y="188.67664"
     x="500.29169"
     style="stroke-width:1.33333">0</tspan><tspan
     id="tspan1256"
     y="188.59753"
     x="535.64172"
     style="stroke-width:1.33333">5</tspan><tspan
     id="tspan1258"
     sodipodi:role="line"
     y="188.67664"
     x="567.17334 574.8053"
     style="stroke-width:1.33333">10</tspan><tspan
     id="tspan1260"
     sodipodi:role="line"
     y="188.59753"
     x="602.68152 610.31348"
     style="stroke-width:1.33333">15</tspan><tspan
     id="tspan1262"
     sodipodi:role="line"
     y="188.67664"
     x="638.73779 646.36975 673.90979 681.54175"
     style="stroke-width:1.33333">2025</tspan></text>
<text
   id="text1304"
   style="font-variant:normal;font-weight:normal;font-size:12px;font-family:'DejaVu Sans';-inkscape-font-specification:DejaVuSans;writing-mode:lr-tb;fill:#000000;fill-opacity:1;fill-rule:nonzero;stroke:none;stroke-width:1.33333"
   x="62.633759"
   y="188.67664"><tspan
     id="tspan1294"
     y="188.67664"
     x="62.633759"
     style="stroke-width:1.33333">0</tspan><tspan
     id="tspan1296"
     y="188.59753"
     x="97.983772"
     style="stroke-width:1.33333">5</tspan><tspan
     id="tspan1298"
     sodipodi:role="line"
     y="188.67664"
     x="129.51538 137.1474"
     style="stroke-width:1.33333">10</tspan><tspan
     id="tspan1300"
     sodipodi:role="line"
     y="188.59753"
     x="165.02356 172.65558"
     style="stroke-width:1.33333">15</tspan><tspan
     id="tspan1302"
     sodipodi:role="line"
     y="188.67664"
     x="201.07983 208.71182 236.25183 243.88382"
     style="stroke-width:1.33333">2025</tspan></text>
</g></svg>
